<?xml version="1.0" encoding="UTF-8" standalone="no"?>
<!-- Created with Inkscape (http://www.inkscape.org/) -->

<svg
   xmlns:dc="http://purl.org/dc/elements/1.1/"
   xmlns:cc="http://creativecommons.org/ns#"
   xmlns:rdf="http://www.w3.org/1999/02/22-rdf-syntax-ns#"
   xmlns:svg="http://www.w3.org/2000/svg"
   xmlns="http://www.w3.org/2000/svg"
   xmlns:xlink="http://www.w3.org/1999/xlink"
   xmlns:sodipodi="http://sodipodi.sourceforge.net/DTD/sodipodi-0.dtd"
   xmlns:inkscape="http://www.inkscape.org/namespaces/inkscape"
   width="177.81566mm"
   height="52.173141mm"
   viewBox="0 0 630.05548 184.86546"
   id="svg7043"
   version="1.1"
   inkscape:version="0.91 r13725"
   sodipodi:docname="LogoBang.svg">
  <defs
     id="defs7045">
    <linearGradient
       gradientTransform="translate(-48.164886,-569.34597)"
       inkscape:collect="always"
       xlink:href="#linearGradient4242"
       id="linearGradient4248"
       x1="306.55798"
       y1="558.85101"
       x2="665.36359"
       y2="558.85101"
       gradientUnits="userSpaceOnUse" />
    <linearGradient
       inkscape:collect="always"
       id="linearGradient4242">
      <stop
         style="stop-color:#f26200;stop-opacity:1"
         offset="0"
         id="stop4244" />
      <stop
         style="stop-color:#f20010;stop-opacity:1"
         offset="1"
         id="stop4246" />
    </linearGradient>
    <linearGradient
       gradientTransform="translate(-48.164886,-569.34597)"
       inkscape:collect="always"
       xlink:href="#linearGradient4234"
       id="linearGradient4240"
       x1="42.394737"
       y1="558.8443"
       x2="323.81177"
       y2="558.8443"
       gradientUnits="userSpaceOnUse"
       spreadMethod="pad" />
    <linearGradient
       inkscape:collect="always"
       id="linearGradient4234">
      <stop
         style="stop-color:#ff6a00;stop-opacity:1;"
         offset="0"
         id="stop4236" />
      <stop
         style="stop-color:#fff200;stop-opacity:1"
         offset="1"
         id="stop4238" />
    </linearGradient>
  </defs>
  <sodipodi:namedview
     id="base"
     pagecolor="#ffffff"
     bordercolor="#666666"
     borderopacity="1.0"
     inkscape:pageopacity="0.0"
     inkscape:pageshadow="2"
     inkscape:zoom="1.4"
     inkscape:cx="530.41087"
     inkscape:cy="210.26573"
     inkscape:document-units="px"
     inkscape:current-layer="layer1"
     showgrid="false"
     fit-margin-top="1"
     fit-margin-left="1"
     fit-margin-right="1"
     fit-margin-bottom="1"
     inkscape:window-width="1855"
     inkscape:window-height="1056"
     inkscape:window-x="65"
     inkscape:window-y="24"
     inkscape:window-maximized="1" />
  <metadata
     id="metadata7048">
    <rdf:RDF>
      <cc:Work
         rdf:about="">
        <dc:format>image/svg+xml</dc:format>
        <dc:type
           rdf:resource="http://purl.org/dc/dcmitype/StillImage" />
        <dc:title></dc:title>
      </cc:Work>
    </rdf:RDF>
  </metadata>
  <g
     inkscape:label="Layer 1"
     inkscape:groupmode="layer"
     id="layer1"
     transform="translate(9.3134561,102.92767)">
    <path
       inkscape:connector-curvature="0"
       style="display:inline;opacity:1;fill:url(#linearGradient4248);fill-opacity:1;fill-rule:evenodd;stroke:#000000;stroke-width:2;stroke-linecap:butt;stroke-linejoin:miter;stroke-miterlimit:4;stroke-dasharray:none;stroke-opacity:1;enable-background:new"
       d="m 259.8351,76.90012 51.35352,0 C 323.70636,40.16716 337.45908,2.1522997 350.71596,-34.56277 l 42.01758,111.31055 0.10742,0 -0.008,0.0234 c 16.67258,0.007 33.3451,0.0952 50.01757,0.15429 4.24428,-13.34998 9.59899,-27.95459 14.49024,-41.27929 5.01521,9.77437 11.56946,18.56742 19.72656,25.36523 16.8171,14.01473 36.25494,16.54929 63.59961,16.375 C 575.47385,77.16455 613.95915,56.47413 616.19038,5.3395397 612.36992,-4.3285803 602.18031,-26.9439 602.18031,-26.9439 l -50.07001,0.33594 -11.93555,32.5488297 c 9.40678,0.26807 21.98793,0.25886 34.22461,0.14258 C 564.79073,29.09789 552.28757,37.83446 535.50483,38.06196 c -17.33124,0.23493 -27.60459,-6.46732 -35.84961,-16.76562 -9.1017,-11.3683303 -11.02579,-28.1920903 -9.40039,-42.66406 1.24089,-11.04843 6.67188,-22.00946 14.22266,-30.16993 5.07078,-5.48022 12.29118,-9.00174 19.45898,-11.09179 7.97218,-2.3246 17.51797,-1.02187 24.88282,-1.22852 l 19.45901,-34.37603 c -39.84276,0 -70.44068,0.30383 -110.58204,0.30383 l -40.75,109.1289 -43.68264,-109.5831 c -15.06211,0 -31.00607,0.10746 -47.22457,0.10746 -22.33409,58.29238 -44.32313,116.71364 -66.20395,175.17702 z"
       id="path4232" />
    <path
       style="display:inline;opacity:1;fill:url(#linearGradient4240);fill-opacity:1;fill-rule:nonzero;stroke:#000000;stroke-width:2;stroke-linecap:butt;stroke-linejoin:miter;stroke-miterlimit:4;stroke-dasharray:none;stroke-opacity:1;enable-background:new"
       d="m 274.58266,-4.4739803 -33.74755,-93.5106597 -0.18164,0.002 -49.35742,0 -30.57617,79.61133 c -5.73408,-2.94288 -10.31749,-8.05504 -16.53321,-9.4375 4.67314,-14.89636 3.73573,-32.4983 -3.41601,-45.13281 -9.69121,-17.12083 -35.79802,-25.10829 -53.423826,-25.08399 -29.94835,0.0413 -50.296876,0 -50.296876,0 l -16.685547,-5e-5 0,0.11133 -25.1328133,0 c 0.101156,57.9618 0.04687,116.92755 0.04687,174.89063 l 41.8535163,0 0,-139.64063 c 17.54197,0 40.74394,0.30384 51.61619,0.28217 12.867256,-0.0256 16.010656,12.40103 14.754896,20.81158 -0.90308,6.04845 -9.921766,11.21438 -14.520016,11.21438 -12.95721,0 -28.72998,0.22703 -28.72998,0.22703 l 0,35.6542897 c 23.83129,0 42.027106,-0.13867 65.587886,-0.13867 12.86728,0 16.55255,10.5657903 15.83008,18.7008703 -0.58591,6.59734 -6.30962,12.66617 -15.30955,12.66617 -9.96145,0 -24.77638,0.0626 -24.77638,0.0626 L 86.735494,76.70867 c 11.359937,0.46265 23.603226,0.28392 37.970696,0.25781 l 0,0.002 49.40039,-0.22461 43.24024,-113.62695 c 5.16293,13.34759 9.85014,26.86692 14.32122,40.4623297 0.96616,2.93781 -27.49806,6.6621503 -27.49806,6.6621503 0,0 30.36331,2.16292 31.01421,4.16774 5.12434,15.78319 9.94529,31.66858 15.02543,47.45607 z"
       id="path4939-1-2"
       inkscape:connector-curvature="0"
       sodipodi:nodetypes="ccccccsscccccccsssccsssccccccscscc" />
  </g>
</svg>
