# Blender v2.76 (sub 0) OBJ File: ''
# www.blender.org
v 0.000000 0.000000 -0.500000
v 0.077274 0.020705 -0.400000
v 0.080000 0.000000 -0.400000
v 0.069282 0.040000 -0.400000
v 0.154548 0.041411 -0.300000
v 0.138564 0.080000 -0.300000
v 0.077274 -0.020705 -0.400000
v 0.160000 0.000000 -0.300000
v 0.231822 0.062116 -0.200000
v 0.207846 0.120000 -0.200000
v 0.113137 0.113137 -0.300000
v 0.169706 0.169706 -0.200000
v 0.277128 0.160000 -0.100000
v 0.226274 0.226274 -0.100000
v 0.240000 0.000000 -0.200000
v 0.309096 0.082822 -0.100000
v 0.346410 0.200000 0.000000
v 0.282843 0.282843 0.000000
v 0.160000 0.277128 -0.100000
v 0.200000 0.346410 0.000000
v 0.120000 0.207846 -0.200000
v 0.082822 0.309096 -0.100000
v 0.103528 0.386370 0.000000
v 0.080000 0.138564 -0.300000
v 0.062116 0.231822 -0.200000
v 0.000000 0.320000 -0.100000
v 0.000000 0.400000 0.000000
v 0.041411 0.154548 -0.300000
v 0.000000 0.240000 -0.200000
v 0.056568 0.056568 -0.400000
v 0.040000 0.069282 -0.400000
v 0.020705 0.077274 -0.400000
v 0.000000 0.080000 -0.400000
v 0.000000 0.160000 -0.300000
v -0.020705 0.077274 -0.400000
v -0.041411 0.154548 -0.300000
v -0.062116 0.231822 -0.200000
v -0.080000 0.138564 -0.300000
v -0.120000 0.207846 -0.200000
v -0.040000 0.069282 -0.400000
v -0.113137 0.113137 -0.300000
v -0.169706 0.169706 -0.200000
v -0.160000 0.277128 -0.100000
v -0.226274 0.226274 -0.100000
v -0.207846 0.120000 -0.200000
v -0.277128 0.160000 -0.100000
v -0.056568 0.056568 -0.400000
v -0.138564 0.080000 -0.300000
v -0.069282 0.040000 -0.400000
v -0.154548 0.041411 -0.300000
v -0.231822 0.062116 -0.200000
v -0.077274 0.020705 -0.400000
v -0.160000 0.000000 -0.300000
v -0.240000 0.000000 -0.200000
v -0.309096 0.082822 -0.100000
v -0.320000 0.000000 -0.100000
v -0.231822 -0.062116 -0.200000
v -0.309096 -0.082822 -0.100000
v -0.400000 0.000000 0.000000
v -0.386370 -0.103527 0.000000
v -0.386370 0.103528 0.000000
v -0.346410 0.200000 0.000000
v -0.282843 0.282843 0.000000
v -0.082822 0.309096 -0.100000
v -0.200000 0.346410 0.000000
v -0.103528 0.386370 0.000000
v -0.346410 -0.200000 0.000000
v -0.277128 -0.160000 -0.100000
v -0.282843 -0.282843 0.000000
v -0.207846 -0.120000 -0.200000
v -0.226274 -0.226274 -0.100000
v -0.154548 -0.041411 -0.300000
v -0.138564 -0.079999 -0.300000
v -0.169706 -0.169706 -0.200000
v -0.160000 -0.277128 -0.100000
v -0.200000 -0.346410 0.000000
v -0.113137 -0.113137 -0.300000
v -0.120000 -0.207846 -0.200000
v -0.077274 -0.020705 -0.400000
v -0.069282 -0.040000 -0.400000
v -0.056568 -0.056568 -0.400000
v -0.080000 -0.138564 -0.300000
v -0.062116 -0.231822 -0.200000
v -0.082822 -0.309096 -0.100000
v -0.040000 -0.069282 -0.400000
v -0.041411 -0.154548 -0.300000
v -0.080000 0.000000 -0.400000
v -0.020705 -0.077274 -0.400000
v 0.000000 -0.080000 -0.400000
v 0.000000 -0.160000 -0.300000
v 0.000000 -0.240000 -0.200000
v 0.041411 -0.154548 -0.300000
v 0.062116 -0.231822 -0.200000
v 0.020705 -0.077274 -0.400000
v 0.082821 -0.309096 -0.100000
v 0.000000 -0.320000 -0.100000
v 0.000000 -0.400000 0.000000
v 0.103527 -0.386370 0.000000
v -0.103528 -0.386370 0.000000
v 0.386370 0.103528 0.000000
v 0.320000 0.000000 -0.100000
v 0.400000 0.000000 0.000000
v 0.231822 -0.062116 -0.200000
v 0.309096 -0.082822 -0.100000
v 0.154548 -0.041411 -0.300000
v 0.138564 -0.080000 -0.300000
v 0.207846 -0.120000 -0.200000
v 0.277128 -0.160000 -0.100000
v 0.386370 -0.103528 0.000000
v 0.113137 -0.113137 -0.300000
v 0.169706 -0.169706 -0.200000
v 0.056568 -0.056568 -0.400000
v 0.069282 -0.040000 -0.400000
v 0.040000 -0.069282 -0.400000
v 0.079999 -0.138564 -0.300000
v 0.120000 -0.207846 -0.200000
v 0.226274 -0.226274 -0.100000
v 0.160000 -0.277128 -0.100000
v 0.200000 -0.346410 0.000000
v 0.282843 -0.282843 0.000000
v 0.346410 -0.200000 0.000000
v 0.000000 0.000000 0.000000
vt 0.500000 0.000000
vt 0.708333 0.200000
vt 0.750000 0.200000
vt 0.666667 0.200000
vt 0.708333 0.400000
vt 0.666667 0.400000
vt 0.791667 0.200000
vt 0.750000 0.400000
vt 0.708333 0.600000
vt 0.666667 0.600000
vt 0.625000 0.400000
vt 0.625000 0.600000
vt 0.666667 0.800000
vt 0.625000 0.800000
vt 0.750000 0.600000
vt 0.708333 0.800000
vt 0.666667 1.000000
vt 0.625000 1.000000
vt 0.583333 0.800000
vt 0.583333 1.000000
vt 0.583333 0.600000
vt 0.541667 0.800000
vt 0.541667 1.000000
vt 0.583333 0.400000
vt 0.541667 0.600000
vt 0.500000 0.800000
vt 0.500000 1.000000
vt 0.541667 0.400000
vt 0.500000 0.600000
vt 0.625000 0.200000
vt 0.583333 0.200000
vt 0.541667 0.200000
vt 0.500000 0.200000
vt 0.500000 0.400000
vt 0.458333 0.200000
vt 0.458333 0.400000
vt 0.458333 0.600000
vt 0.416667 0.400000
vt 0.416667 0.600000
vt 0.416667 0.200000
vt 0.375000 0.400000
vt 0.375000 0.600000
vt 0.416667 0.800000
vt 0.375000 0.800000
vt 0.333333 0.600000
vt 0.333333 0.800000
vt 0.375000 0.200000
vt 0.333333 0.400000
vt 0.333333 0.200000
vt 0.291667 0.400000
vt 0.291667 0.600000
vt 0.291667 0.200000
vt 0.250000 0.400000
vt 0.250000 0.600000
vt 0.291667 0.800000
vt 0.250000 0.800000
vt 0.208333 0.600000
vt 0.208333 0.800000
vt 0.250000 1.000000
vt 0.208333 1.000000
vt 0.291667 1.000000
vt 0.333333 1.000000
vt 0.375000 1.000000
vt 0.458333 0.800000
vt 0.416667 1.000000
vt 0.458333 1.000000
vt 0.166667 1.000000
vt 0.166667 0.800000
vt 0.125000 1.000000
vt 0.166667 0.600000
vt 0.125000 0.800000
vt 0.208333 0.400000
vt 0.166667 0.400000
vt 0.125000 0.600000
vt 0.083333 0.800000
vt 0.083333 1.000000
vt 0.125000 0.400000
vt 0.083333 0.600000
vt 0.208333 0.200000
vt 0.166667 0.200000
vt 0.125000 0.200000
vt 0.083333 0.400000
vt 0.041666 0.600000
vt 0.041666 0.800000
vt 0.083333 0.200000
vt 0.041666 0.400000
vt 0.250000 0.200000
vt 0.041666 0.200000
vt 0.000000 0.200000
vt 0.000000 0.400000
vt 0.000000 0.600000
vt -0.041666 0.400000
vt -0.041666 0.600000
vt -0.041666 0.200000
vt -0.041666 0.800000
vt 0.000000 0.800000
vt 0.000000 1.000000
vt -0.041666 1.000000
vt 0.041666 1.000000
vt 0.708333 1.000000
vt 0.750000 0.800000
vt 0.750000 1.000000
vt 0.791667 0.600000
vt 0.791667 0.800000
vt 0.791667 0.400000
vt 0.833333 0.400000
vt 0.833333 0.600000
vt 0.833333 0.800000
vt 0.791667 1.000000
vt 0.875000 0.400000
vt 0.875000 0.600000
vt 0.875000 0.200000
vt 0.833333 0.200000
vt 0.916667 0.200000
vt 0.916667 0.400000
vt 0.916667 0.600000
vt 0.875000 0.800000
vt 0.958333 0.200000
vt 0.958333 0.400000
vt 0.958333 0.600000
vt 0.916667 0.800000
vt 0.958333 0.800000
vt 0.916667 1.000000
vt 0.875000 1.000000
vt 0.833333 1.000000
vt 0.958333 1.000000
vn 0.776800 0.102300 -0.621400
vn 0.754300 0.202100 -0.624700
vn 0.780900 -0.000000 -0.624700
vn 0.723800 0.299800 -0.621400
vn 0.676200 0.390400 -0.624700
vn 0.676300 0.390400 -0.624700
vn 0.776800 -0.102300 -0.621400
vn 0.754300 -0.202100 -0.624700
vn 0.552200 0.552200 -0.624700
vn 0.390400 0.676300 -0.624700
vn 0.202100 0.754300 -0.624700
vn 0.000000 0.780900 -0.624700
vn 0.390400 0.676200 -0.624700
vn 0.621600 0.477000 -0.621400
vn 0.477000 0.621600 -0.621400
vn 0.299800 0.723800 -0.621400
vn 0.102300 0.776800 -0.621400
vn -0.102300 0.776800 -0.621400
vn -0.202100 0.754300 -0.624700
vn -0.390400 0.676300 -0.624700
vn -0.299800 0.723800 -0.621400
vn -0.390400 0.676200 -0.624700
vn -0.552200 0.552200 -0.624700
vn -0.676300 0.390400 -0.624700
vn -0.477000 0.621600 -0.621400
vn -0.621600 0.477000 -0.621400
vn -0.676200 0.390400 -0.624700
vn -0.754300 0.202100 -0.624700
vn -0.723800 0.299800 -0.621400
vn -0.780900 0.000000 -0.624700
vn -0.754300 -0.202100 -0.624700
vn -0.676300 -0.390400 -0.624700
vn -0.552200 -0.552200 -0.624700
vn -0.390400 -0.676300 -0.624700
vn -0.676200 -0.390400 -0.624700
vn -0.202100 -0.754300 -0.624700
vn -0.390400 -0.676200 -0.624700
vn -0.621600 -0.477000 -0.621400
vn -0.477000 -0.621600 -0.621400
vn -0.723800 -0.299800 -0.621400
vn -0.776800 -0.102300 -0.621400
vn -0.776800 0.102300 -0.621400
vn -0.299800 -0.723800 -0.621400
vn -0.102300 -0.776800 -0.621400
vn 0.000000 -0.780900 -0.624700
vn 0.202100 -0.754300 -0.624700
vn 0.102300 -0.776800 -0.621400
vn 0.676300 -0.390400 -0.624700
vn 0.552200 -0.552200 -0.624700
vn 0.676200 -0.390400 -0.624700
vn 0.390400 -0.676200 -0.624700
vn 0.390400 -0.676300 -0.624700
vn 0.299800 -0.723800 -0.621400
vn 0.477000 -0.621600 -0.621400
vn 0.621600 -0.477000 -0.621400
vn 0.723800 -0.299800 -0.621400
vn 0.000000 0.000000 1.000000
s 1
f 1/1/1 2/2/2 3/3/3
f 1/1/4 4/4/5 2/2/2
f 3/3/3 2/2/2 5/5/2
f 2/2/2 6/6/6 5/5/2
f 2/2/2 4/4/5 6/6/6
f 1/1/7 3/3/3 7/7/8
f 3/3/3 5/5/2 8/8/3
f 7/7/8 3/3/3 8/8/3
f 8/8/3 5/5/2 9/9/2
f 5/5/2 10/10/6 9/9/2
f 5/5/2 6/6/6 10/10/6
f 4/4/5 11/11/9 6/6/6
f 6/6/6 12/12/9 10/10/6
f 6/6/6 11/11/9 12/12/9
f 9/9/2 10/10/6 13/13/6
f 10/10/6 14/14/9 13/13/6
f 10/10/6 12/12/9 14/14/9
f 8/8/3 9/9/2 15/15/3
f 15/15/3 9/9/2 16/16/2
f 9/9/2 13/13/6 16/16/2
f 16/16/2 13/13/6 17/17/6
f 13/13/6 18/18/9 17/17/6
f 13/13/6 14/14/9 18/18/9
f 12/12/9 19/19/10 14/14/9
f 14/14/9 20/20/10 18/18/9
f 14/14/9 19/19/10 20/20/10
f 12/12/9 21/21/10 19/19/10
f 21/21/10 22/22/11 19/19/10
f 19/19/10 23/23/11 20/20/10
f 19/19/10 22/22/11 23/23/11
f 11/11/9 21/21/10 12/12/9
f 11/11/9 24/24/10 21/21/10
f 24/24/10 25/25/11 21/21/10
f 21/21/10 25/25/11 22/22/11
f 25/25/11 26/26/12 22/22/11
f 22/22/11 27/27/12 23/23/11
f 22/22/11 26/26/12 27/27/12
f 24/24/10 28/28/11 25/25/11
f 28/28/11 29/29/12 25/25/11
f 25/25/11 29/29/12 26/26/12
f 30/30/9 24/24/10 11/11/9
f 30/30/9 31/31/13 24/24/10
f 31/31/13 28/28/11 24/24/10
f 4/4/5 30/30/9 11/11/9
f 1/1/14 30/30/9 4/4/5
f 1/1/15 31/31/13 30/30/9
f 1/1/16 32/32/11 31/31/13
f 31/31/13 32/32/11 28/28/11
f 1/1/17 33/33/12 32/32/11
f 32/32/11 34/34/12 28/28/11
f 32/32/11 33/33/12 34/34/12
f 1/1/18 35/35/19 33/33/12
f 33/33/12 36/36/19 34/34/12
f 33/33/12 35/35/19 36/36/19
f 28/28/11 34/34/12 29/29/12
f 34/34/12 37/37/19 29/29/12
f 34/34/12 36/36/19 37/37/19
f 35/35/19 38/38/20 36/36/19
f 36/36/19 39/39/20 37/37/19
f 36/36/19 38/38/20 39/39/20
f 1/1/21 40/40/22 35/35/19
f 35/35/19 40/40/22 38/38/20
f 40/40/22 41/41/23 38/38/20
f 38/38/20 42/42/23 39/39/20
f 38/38/20 41/41/23 42/42/23
f 37/37/19 39/39/20 43/43/20
f 39/39/20 44/44/23 43/43/20
f 39/39/20 42/42/23 44/44/23
f 41/41/23 45/45/24 42/42/23
f 42/42/23 46/46/24 44/44/23
f 42/42/23 45/45/24 46/46/24
f 40/40/22 47/47/23 41/41/23
f 47/47/23 48/48/24 41/41/23
f 41/41/23 48/48/24 45/45/24
f 1/1/25 47/47/23 40/40/22
f 1/1/26 49/49/27 47/47/23
f 47/47/23 49/49/27 48/48/24
f 49/49/27 50/50/28 48/48/24
f 48/48/24 51/51/28 45/45/24
f 48/48/24 50/50/28 51/51/28
f 1/1/29 52/52/28 49/49/27
f 49/49/27 52/52/28 50/50/28
f 52/52/28 53/53/30 50/50/28
f 50/50/28 54/54/30 51/51/28
f 50/50/28 53/53/30 54/54/30
f 45/45/24 51/51/28 55/55/28
f 51/51/28 56/56/30 55/55/28
f 51/51/28 54/54/30 56/56/30
f 53/53/30 57/57/31 54/54/30
f 54/54/30 58/58/31 56/56/30
f 54/54/30 57/57/31 58/58/31
f 55/55/28 56/56/30 59/59/30
f 56/56/30 60/60/31 59/59/30
f 56/56/30 58/58/31 60/60/31
f 45/45/24 55/55/28 46/46/24
f 46/46/24 55/55/28 61/61/28
f 55/55/28 59/59/30 61/61/28
f 44/44/23 46/46/24 62/62/24
f 46/46/24 61/61/28 62/62/24
f 43/43/20 44/44/23 63/63/23
f 44/44/23 62/62/24 63/63/23
f 37/37/19 43/43/20 64/64/19
f 64/64/19 43/43/20 65/65/20
f 43/43/20 63/63/23 65/65/20
f 29/29/12 37/37/19 64/64/19
f 29/29/12 64/64/19 26/26/12
f 26/26/12 64/64/19 66/66/19
f 64/64/19 65/65/20 66/66/19
f 26/26/12 66/66/19 27/27/12
f 58/58/31 67/67/32 60/60/31
f 57/57/31 68/68/32 58/58/31
f 58/58/31 68/68/32 67/67/32
f 68/68/32 69/69/33 67/67/32
f 57/57/31 70/70/32 68/68/32
f 70/70/32 71/71/33 68/68/32
f 68/68/32 71/71/33 69/69/33
f 53/53/30 72/72/31 57/57/31
f 72/72/31 70/70/32 57/57/31
f 72/72/31 73/73/32 70/70/32
f 73/73/32 74/74/33 70/70/32
f 70/70/32 74/74/33 71/71/33
f 74/74/33 75/75/34 71/71/33
f 71/71/33 76/76/34 69/69/33
f 71/71/33 75/75/34 76/76/34
f 73/73/32 77/77/33 74/74/33
f 77/77/33 78/78/34 74/74/33
f 74/74/33 78/78/34 75/75/34
f 79/79/31 73/73/32 72/72/31
f 79/79/31 80/80/35 73/73/32
f 80/80/35 77/77/33 73/73/32
f 80/80/35 81/81/33 77/77/33
f 81/81/33 82/82/34 77/77/33
f 77/77/33 82/82/34 78/78/34
f 82/82/34 83/83/36 78/78/34
f 78/78/34 84/84/36 75/75/34
f 78/78/34 83/83/36 84/84/36
f 81/81/33 85/85/37 82/82/34
f 85/85/37 86/86/36 82/82/34
f 82/82/34 86/86/36 83/83/36
f 1/1/38 81/81/33 80/80/35
f 1/1/39 85/85/37 81/81/33
f 1/1/40 80/80/35 79/79/31
f 1/1/41 79/79/31 87/87/30
f 87/87/30 79/79/31 72/72/31
f 1/1/42 87/87/30 52/52/28
f 52/52/28 87/87/30 53/53/30
f 87/87/30 72/72/31 53/53/30
f 1/1/43 88/88/36 85/85/37
f 85/85/37 88/88/36 86/86/36
f 1/1/44 89/89/45 88/88/36
f 88/88/36 90/90/45 86/86/36
f 88/88/36 89/89/45 90/90/45
f 86/86/36 91/91/45 83/83/36
f 86/86/36 90/90/45 91/91/45
f 89/89/45 92/92/46 90/90/45
f 90/90/45 93/93/46 91/91/45
f 90/90/45 92/92/46 93/93/46
f 1/1/47 94/94/46 89/89/45
f 89/89/45 94/94/46 92/92/46
f 91/91/45 93/93/46 95/95/46
f 83/83/36 91/91/45 96/96/45
f 91/91/45 95/95/46 96/96/45
f 83/83/36 96/96/45 84/84/36
f 84/84/36 96/96/45 97/97/45
f 96/96/45 98/98/46 97/97/45
f 96/96/45 95/95/46 98/98/46
f 75/75/34 84/84/36 99/99/36
f 84/84/36 97/97/45 99/99/36
f 75/75/34 99/99/36 76/76/34
f 16/16/2 17/17/6 100/100/2
f 15/15/3 16/16/2 101/101/3
f 101/101/3 16/16/2 100/100/2
f 101/101/3 100/100/2 102/102/3
f 103/103/8 101/101/3 104/104/8
f 103/103/8 15/15/3 101/101/3
f 104/104/8 101/101/3 102/102/3
f 105/105/8 15/15/3 103/103/8
f 105/105/8 8/8/3 15/15/3
f 106/106/48 103/103/8 107/107/48
f 106/106/48 105/105/8 103/103/8
f 107/107/48 103/103/8 104/104/8
f 107/107/48 104/104/8 108/108/48
f 108/108/48 104/104/8 109/109/8
f 104/104/8 102/102/3 109/109/8
f 110/110/49 107/107/48 111/111/49
f 110/110/49 106/106/48 107/107/48
f 111/111/49 107/107/48 108/108/48
f 112/112/49 106/106/48 110/110/49
f 112/112/49 113/113/50 106/106/48
f 113/113/50 105/105/8 106/106/48
f 114/114/51 110/110/49 115/115/52
f 114/114/51 112/112/49 110/110/49
f 115/115/52 110/110/49 111/111/49
f 115/115/52 111/111/49 116/116/52
f 116/116/52 111/111/49 117/117/49
f 111/111/49 108/108/48 117/117/49
f 94/118/46 115/115/52 92/119/46
f 94/118/46 114/114/51 115/115/52
f 92/119/46 115/115/52 116/116/52
f 1/1/53 114/114/51 94/118/46
f 1/1/54 112/112/49 114/114/51
f 1/1/55 113/113/50 112/112/49
f 1/1/56 7/7/8 113/113/50
f 113/113/50 7/7/8 105/105/8
f 7/7/8 8/8/3 105/105/8
f 92/119/46 116/116/52 93/120/46
f 93/120/46 116/116/52 118/121/52
f 116/116/52 117/117/49 118/121/52
f 93/120/46 118/121/52 95/122/46
f 95/122/46 118/121/52 119/123/52
f 118/121/52 120/124/49 119/123/52
f 118/121/52 117/117/49 120/124/49
f 117/117/49 121/125/48 120/124/49
f 117/117/49 108/108/48 121/125/48
f 108/108/48 109/109/8 121/125/48
f 95/122/46 119/123/52 98/126/46
f 122/27/57 102/102/57 100/100/57
f 122/27/57 100/100/57 17/17/57
f 122/27/57 17/17/57 18/18/57
f 122/27/57 18/18/57 20/20/57
f 122/27/57 20/20/57 23/23/57
f 122/27/57 23/23/57 27/27/57
f 122/27/57 27/27/57 66/66/57
f 122/27/57 66/66/57 65/65/57
f 122/27/57 65/65/57 63/63/57
f 122/27/57 63/63/57 62/62/57
f 122/27/57 62/62/57 61/61/57
f 122/27/57 61/61/57 59/59/57
f 122/27/57 59/59/57 60/60/57
f 122/27/57 60/60/57 67/67/57
f 122/27/57 67/67/57 69/69/57
f 122/27/57 69/69/57 76/76/57
f 122/27/57 76/76/57 99/99/57
f 122/27/57 99/99/57 97/97/57
f 122/27/57 97/97/57 98/98/57
f 122/27/57 98/126/57 119/123/57
f 122/27/57 119/123/57 120/124/57
f 122/27/57 120/124/57 121/125/57
f 122/27/57 121/125/57 109/109/57
f 122/27/57 109/109/57 102/102/57
