# 3ds Max Wavefront OBJ Exporter v0.97b - (c)2007 guruware
# File Created: 07.10.2015 13:04:12

mtllib 3d-model.mtl

#
# object Video_camera_001
#

v  -256.6166 17.4625 90.0135
v  -256.6166 17.4625 -71.4925
v  -148.8428 17.4625 -71.4925
v  -148.8428 17.4625 90.0135
v  -148.8428 17.4625 9.2605
v  -183.7831 369.8029 -6.4415
v  -183.7831 369.8029 24.9625
v  -66.3923 369.8029 24.9625
v  -66.3923 369.8029 -6.4415
v  22.7572 -0.0000 90.0135
v  75.4710 -0.0000 90.0135
v  75.4710 54.3017 90.0135
v  -29.9565 -0.0000 90.0135
v  -41.0690 17.4625 90.0135
v  -345.8650 68.7895 90.0135
v  -345.8650 -0.0000 90.0135
v  -267.7291 -0.0000 90.0135
v  123.6984 123.6893 90.0135
v  123.6984 54.3017 90.0135
v  -323.7349 91.0710 90.0135
v  -323.7349 276.5037 90.0135
v  75.4710 193.0768 90.0135
v  123.6984 193.0768 90.0135
v  -13.0967 239.6418 90.0135
v  75.4710 239.6418 90.0135
v  -101.6643 276.5037 90.0135
v  -345.8650 68.7895 -71.4925
v  -345.8650 -0.0000 -71.4925
v  -13.0967 239.6418 24.9625
v  31.1871 239.6418 24.9625
v  31.1871 310.0200 24.9625
v  -66.3923 345.5023 24.9625
v  -183.7831 345.5023 24.9625
v  -263.3310 276.5037 24.9625
v  -212.6996 276.5037 24.9625
v  117.1966 224.8693 -131.3094
v  75.4710 224.8693 -131.3094
v  75.4710 310.0200 -131.3094
v  147.3332 237.3523 -131.3094
v  159.8162 267.4889 -131.3094
v  147.3332 297.6255 -131.3094
v  117.4103 310.0200 -131.3094
v  22.7572 -0.0000 9.2605
v  22.7572 -0.0000 -71.4925
v  75.4710 -0.0000 -71.4925
v  276.1551 48.5070 101.9872
v  368.2963 19.1847 131.3095
v  368.2963 236.5497 131.3095
v  276.1551 207.2274 101.9872
v  31.1871 239.6418 9.2605
v  31.1871 310.0200 9.2605
v  123.6984 77.3984 35.8593
v  123.6984 71.0492 18.4151
v  246.6292 71.0492 18.4151
v  246.6292 77.3984 35.8593
v  123.6984 71.0492 -0.1486
v  246.6292 71.0492 -0.1486
v  123.6984 123.6893 62.5853
v  246.6292 123.6893 62.5853
v  246.6292 141.9709 59.3618
v  123.6984 141.9709 59.3618
v  123.6984 105.4076 59.3618
v  246.6292 105.4076 59.3618
v  123.6984 169.9801 35.8593
v  123.6984 158.0476 50.0799
v  246.6292 158.0476 50.0799
v  246.6292 169.9801 35.8593
v  123.6984 176.3293 18.4151
v  246.6292 176.3293 18.4151
v  284.9133 191.4913 86.2511
v  284.9133 191.4913 -67.9846
v  368.2963 227.6233 -104.1166
v  368.2963 227.6233 122.3831
v  123.6984 169.9801 -17.5928
v  123.6984 176.3293 -0.1486
v  246.6292 176.3293 -0.1486
v  246.6292 169.9801 -17.5928
v  246.6292 158.0476 -31.8135
v  246.6292 141.9709 -41.0953
v  123.6984 141.9709 -41.0953
v  123.6984 158.0476 -31.8135
v  246.6292 89.3309 -31.8135
v  123.6984 89.3309 -31.8135
v  123.6984 105.4076 -41.0953
v  246.6292 105.4076 -41.0953
v  -212.6996 276.5037 9.2605
v  -101.6643 276.5037 -71.4925
v  -263.3310 276.5037 9.2605
v  -323.7349 276.5037 -71.4925
v  -323.7349 276.5037 -31.1160
v  -323.7349 276.5037 49.6370
v  -29.9565 -0.0000 -71.4925
v  31.1871 239.6418 -6.4415
v  31.1871 310.0200 -6.4415
v  75.4710 310.0200 -60.6506
v  75.4710 239.6418 -60.6506
v  -13.0967 239.6418 -71.4925
v  -13.0967 239.6418 9.2605
v  -13.0967 239.6418 -6.4415
v  -267.7291 -0.0000 -71.4925
v  -66.3923 345.5023 -6.4415
v  75.4710 239.6418 -71.4925
v  75.4710 224.8693 -71.4925
v  368.2963 28.1111 122.3831
v  284.9133 64.2431 86.2511
v  -41.0690 17.4625 -71.4925
v  75.4710 54.3017 -71.4925
v  123.6984 54.3017 -71.4925
v  123.6984 123.6893 -71.4925
v  -323.7349 91.0710 -71.4925
v  75.4710 193.0768 -71.4925
v  123.6984 193.0768 -71.4925
v  75.4710 239.6418 82.5363
v  276.1551 48.5070 -83.7207
v  246.6292 48.5070 -83.7207
v  246.6292 207.2274 -83.7207
v  276.1551 207.2274 -83.7207
v  75.4710 310.0200 82.5363
v  117.4103 310.0200 82.5363
v  -323.7349 99.7983 -31.1160
v  -368.2964 99.7983 -31.1160
v  -368.2964 298.5612 -31.1160
v  -323.7349 298.5612 -31.1160
v  123.6984 89.3309 50.0799
v  123.6984 77.3984 -17.5928
v  123.6984 123.6893 -44.3189
v  368.2963 19.1847 -113.0430
v  368.2963 28.1111 -104.1166
v  368.2963 236.5497 -113.0430
v  -368.2964 298.5612 49.6370
v  -323.7349 298.5612 49.6370
v  -183.7831 345.5023 -6.4415
v  284.9133 64.2431 -67.9846
v  75.4710 224.8693 82.5363
v  117.1966 224.8693 82.5363
v  246.6292 207.2274 101.9872
v  -368.2964 99.7983 49.6370
v  246.6292 89.3309 50.0799
v  246.6292 123.6893 -44.3189
v  246.6292 77.3984 -17.5928
v  -323.7349 99.7983 49.6370
v  -212.6996 276.5037 -6.4415
v  -263.3310 276.5037 -6.4415
v  246.6292 48.5070 101.9872
v  147.3332 237.3523 82.5363
v  159.8162 267.4889 82.5363
v  147.3332 297.6255 82.5363
# 147 vertices

vn 0.0000 -1.0000 -0.0000
vn 0.0000 1.0000 -0.0000
vn -0.0000 0.0000 1.0000
vn -1.0000 -0.0000 0.0000
vn -0.0000 0.0000 -1.0000
vn -0.3032 0.0000 0.9529
vn 1.0000 0.0000 -0.0000
vn -0.0000 -0.8660 0.5000
vn -0.0000 -0.9848 0.1736
vn 0.0000 -0.9848 -0.1736
vn 0.0000 0.3420 0.9397
vn -0.0000 -0.3420 0.9397
vn -0.0000 0.8660 0.5000
vn -0.0000 0.6428 0.7660
vn -0.0000 0.9848 0.1736
vn 0.3976 -0.9176 -0.0000
vn -0.0000 0.8660 -0.5000
vn -0.0000 0.9848 -0.1736
vn -0.0000 0.6428 -0.7660
vn -0.0000 0.3420 -0.9397
vn 0.0000 -0.6428 -0.7660
vn -0.0000 -0.3420 -0.9397
vn -0.7744 -0.0000 -0.6326
vn 0.3842 0.9232 -0.0000
vn -0.8932 -0.4497 0.0000
vn 0.3976 -0.0000 -0.9176
vn -0.7926 -0.0000 0.6097
vn 0.8437 -0.5369 -0.0000
vn -0.3032 -0.0000 -0.9529
vn 0.3976 0.0000 0.9176
vn -0.7095 0.7047 0.0000
vn 0.5224 0.8527 -0.0000
vn -0.3032 0.9529 0.0000
vn 0.3976 0.9176 -0.0000
vn -0.0000 -0.6428 0.7660
vn 0.0000 -0.8660 -0.5000
vn -0.8437 -0.5369 0.0000
vn -0.7610 0.6488 0.0000
vn 0.9223 -0.3865 0.0000
vn -0.3032 -0.9529 -0.0000
vn -0.0000 -0.0000 -1.0000
vn -1.0000 0.0000 -0.0000
vn 0.3827 -0.9239 -0.0000
vn 0.7071 -0.7071 -0.0000
vn 0.3827 0.9239 0.0000
vn 0.7071 0.7071 -0.0000
vn 1.0000 -0.0000 -0.0000
# 47 vertex normals

vt 0.0000 0.0000 0.0000
vt 0.1462 -0.2339 0.0000
vt 0.1462 0.0000 0.0000
vt 0.1096 0.0000 0.0000
vt 0.1096 -0.2339 0.0000
vt -0.0000 -0.2339 0.0000
vt 0.0364 -0.2339 0.0000
vt 0.0364 0.0000 0.0000
vt 0.0730 -0.2339 0.0000
vt 0.0730 -0.0000 0.0000
# 10 texture coords

g Video_camera_001
usemtl wire_229166215
s off
f 1/1/1 2/1/1 3/1/1 4/1/1 
f 4/1/1 3/1/1 5/1/1 
f 6/1/2 7/1/2 8/1/2 9/1/2 
f 10/1/3 11/1/3 12/1/3 13/1/3 
f 14/1/3 13/1/3 12/1/3 4/1/3 
f 1/1/3 4/1/3 12/1/3 15/1/3 
f 1/1/3 15/1/3 16/1/3 17/1/3 
f 18/1/3 15/1/3 12/1/3 19/1/3 
f 20/1/3 15/1/3 18/1/3 21/1/3 
f 22/1/3 21/1/3 18/1/3 23/1/3 
f 24/1/3 21/1/3 22/1/3 25/1/3 
f 21/1/3 24/1/3 26/1/3 
f 16/1/4 15/1/4 27/1/4 28/1/4 
f 29/1/3 30/1/3 31/1/3 32/1/3 
f 32/1/3 31/1/3 8/1/3 33/1/3 
f 33/1/3 8/1/3 7/1/3 34/1/3 
f 33/1/3 34/1/3 35/1/3 
f 36/1/5 37/1/5 38/1/5 39/1/5 
f 40/1/5 39/1/5 38/1/5 41/1/5 
f 41/1/5 38/1/5 42/1/5 
f 43/1/1 44/1/1 45/1/1 10/1/1 
f 10/1/1 45/1/1 11/1/1 
f 46/1/6 47/1/6 48/1/6 49/1/6 
f 31/1/7 30/1/7 50/1/7 51/1/7 
f 52/1/8 53/1/9 54/1/9 55/1/8 
f 53/1/9 56/1/10 57/1/10 54/1/9 
f 58/1/3 59/1/3 60/1/11 61/1/11 
f 62/1/12 63/1/12 59/1/3 58/1/3 
f 64/1/13 65/1/14 66/1/14 67/1/13 
f 68/1/15 64/1/13 67/1/13 69/1/15 
f 70/1/16 71/1/16 72/1/16 73/1/16 
f 74/1/17 75/1/18 76/1/18 77/1/17 
f 78/1/19 79/1/20 80/1/20 81/1/19 
f 82/1/21 83/1/21 84/1/22 85/1/22 
f 75/1/18 68/1/15 69/1/15 76/1/18 
f 81/1/19 74/1/17 77/1/17 78/1/19 
f 34/1/2 21/1/2 26/1/2 35/1/2 
f 86/1/2 35/1/2 26/1/2 87/1/2 
f 88/1/2 86/1/2 87/1/2 89/1/2 
f 21/1/2 88/1/2 89/1/2 90/1/2 
f 21/1/2 90/1/2 91/1/2 
f 88/1/2 21/1/2 34/1/2 
f 13/1/1 92/1/1 44/1/1 10/1/1 
f 10/1/1 44/1/1 43/1/1 
f 93/1/23 94/1/23 95/1/23 96/1/23 
f 97/1/24 87/1/24 26/1/24 24/1/24 
f 97/1/24 24/1/24 29/1/24 98/1/24 
f 97/1/24 98/1/24 99/1/24 
f 16/1/1 28/1/1 100/1/1 17/1/1 
f 29/1/25 32/1/25 101/1/25 98/1/25 
f 98/1/25 101/1/25 99/1/25 
f 96/1/4 95/1/4 38/1/4 102/1/4 
f 103/1/4 102/1/4 38/1/4 37/1/4 
f 73/1/26 104/1/26 105/1/26 70/1/26 
f 88/1/2 34/1/2 35/1/2 86/1/2 
f 44/1/5 92/1/5 106/1/5 45/1/5 
f 107/1/5 45/1/5 106/1/5 27/1/5 
f 27/1/5 106/1/5 3/1/5 2/1/5 
f 27/1/5 2/1/5 100/1/5 28/1/5 
f 108/1/5 107/1/5 27/1/5 109/1/5 
f 109/1/5 27/1/5 110/1/5 89/1/5 
f 111/1/5 109/1/5 89/1/5 103/1/5 
f 97/1/5 103/1/5 89/1/5 87/1/5 
f 102/1/5 103/1/5 97/1/5 
f 112/1/5 109/1/5 111/1/5 
f 29/1/2 24/1/2 25/1/2 98/1/2 
f 99/1/2 98/1/2 25/1/2 30/1/2 
f 30/1/2 25/1/2 113/1/2 
f 93/1/2 99/1/2 30/1/2 50/1/2 
f 114/1/5 115/1/5 116/1/5 117/1/5 
f 51/1/2 31/1/2 118/1/2 94/1/2 
f 95/1/2 94/1/2 118/1/2 119/1/2 
f 38/1/2 95/1/2 119/1/2 42/1/2 
f 113/1/27 118/1/27 31/1/27 30/1/27 
f 120/1/5 121/1/5 122/1/5 90/1/5 
f 90/1/5 122/1/5 123/1/5 
f 51/1/7 50/1/7 93/1/7 94/1/7 
f 124/1/7 18/1/7 19/1/7 52/1/7 
f 53/1/7 52/1/7 19/1/7 108/1/7 
f 56/1/7 53/1/7 108/1/7 125/1/7 
f 83/1/7 125/1/7 108/1/7 84/1/7 
f 126/1/7 84/1/7 108/1/7 112/1/7 
f 80/1/7 126/1/7 112/1/7 81/1/7 
f 74/1/7 81/1/7 112/1/7 75/1/7 
f 68/1/7 75/1/7 112/1/7 23/1/7 
f 64/1/7 68/1/7 23/1/7 65/1/7 
f 61/1/7 65/1/7 23/1/7 58/1/7 
f 62/1/7 58/1/7 23/1/7 18/1/7 
f 18/1/7 124/1/7 62/1/7 
f 112/1/7 108/1/7 109/1/7 
f 61/1/11 60/1/11 66/1/14 65/1/14 
f 104/1/7 48/1/7 47/1/7 127/1/7 
f 128/1/7 104/1/7 127/1/7 72/1/7 
f 72/1/7 127/1/7 129/1/7 73/1/7 
f 73/1/7 129/1/7 48/1/7 104/1/7 
f 1/1/28 17/1/28 100/1/28 2/1/28 
f 129/1/29 127/1/29 114/1/29 117/1/29 
f 122/1/2 130/1/2 131/1/2 123/1/2 
f 12/1/7 11/1/7 45/1/7 107/1/7 
f 33/1/1 132/1/1 101/1/1 32/1/1 
f 133/1/30 128/1/30 72/1/30 71/1/30 
f 103/1/1 37/1/1 36/1/1 134/1/1 
f 134/1/1 36/1/1 135/1/1 
f 29/1/1 98/1/1 50/1/1 30/1/1 
f 15/1/31 20/1/31 110/1/31 27/1/31 
f 9/1/32 8/1/32 31/1/32 94/1/32 
f 94/1/32 31/1/32 51/1/32 
f 117/1/2 116/1/2 136/1/2 49/1/2 
f 117/1/33 49/1/33 48/1/33 129/1/33 
f 137/1/4 130/1/4 122/1/4 121/1/4 
f 133/1/34 105/1/34 104/1/34 128/1/34 
f 134/1/7 25/1/7 22/1/7 111/1/7 
f 134/1/7 111/1/7 103/1/7 
f 113/1/7 25/1/7 134/1/7 
f 61/1/7 58/1/7 62/1/7 124/1/7 
f 65/1/7 61/1/7 124/1/7 52/1/7 
f 64/1/7 65/1/7 52/1/7 68/1/7 
f 68/1/7 52/1/7 53/1/7 56/1/7 
f 75/1/7 68/1/7 56/1/7 125/1/7 
f 74/1/7 75/1/7 125/1/7 81/1/7 
f 81/1/7 125/1/7 83/1/7 84/1/7 
f 80/1/7 81/1/7 84/1/7 126/1/7 
f 124/1/35 52/1/8 55/1/8 138/1/35 
f 139/1/5 126/1/5 80/1/20 79/1/20 
f 56/1/10 125/1/36 140/1/36 57/1/10 
f 97/1/2 99/1/2 93/1/2 102/1/2 
f 102/1/2 93/1/2 96/1/2 
f 137/1/1 121/1/1 120/1/1 141/1/1 
f 13/1/37 14/1/37 106/1/37 92/1/37 
f 142/1/5 143/1/5 6/1/5 132/1/5 
f 101/1/5 132/1/5 6/1/5 9/1/5 
f 101/1/5 9/1/5 94/1/5 93/1/5 
f 101/1/5 93/1/5 99/1/5 
f 144/1/1 115/1/1 114/1/1 46/1/1 
f 125/1/36 83/1/21 82/1/21 140/1/36 
f 5/1/1 3/1/1 106/1/1 4/1/1 
f 4/1/1 106/1/1 14/1/1 
f 88/1/38 34/1/38 7/1/38 6/1/38 
f 88/1/38 6/1/38 143/1/38 
f 33/1/39 35/1/39 86/1/39 132/1/39 
f 132/1/39 86/1/39 142/1/39 
f 120/1/4 90/1/4 89/1/4 110/1/4 
f 141/1/4 120/1/4 110/1/4 20/1/4 
f 91/1/4 141/1/4 20/1/4 21/1/4 
f 60/1/4 144/1/4 136/1/4 66/1/4 
f 67/1/4 66/1/4 136/1/4 69/1/4 
f 69/1/4 136/1/4 116/1/4 76/1/4 
f 77/1/4 76/1/4 116/1/4 78/1/4 
f 79/1/4 78/1/4 116/1/4 139/1/4 
f 139/1/4 116/1/4 115/1/4 85/1/4 
f 82/1/4 85/1/4 115/1/4 140/1/4 
f 57/1/4 140/1/4 115/1/4 54/1/4 
f 54/1/4 115/1/4 144/1/4 55/1/4 
f 138/1/4 55/1/4 144/1/4 63/1/4 
f 59/1/4 63/1/4 144/1/4 60/1/4 
f 124/1/35 138/1/35 63/1/12 62/1/12 
f 139/1/5 85/1/22 84/1/22 126/1/5 
f 144/1/3 46/1/3 49/1/3 136/1/3 
f 134/1/3 135/1/3 145/1/3 113/1/3 
f 113/1/3 145/1/3 146/1/3 118/1/3 
f 118/1/3 146/1/3 147/1/3 119/1/3 
f 46/1/40 114/1/40 127/1/40 47/1/40 
f 111/1/2 22/1/2 23/1/2 112/1/2 
f 12/1/1 107/1/1 108/1/1 19/1/1 
f 141/1/41 137/1/41 130/1/41 91/1/41 
f 91/1/41 130/1/41 131/1/41 
f 91/1/42 131/1/42 123/1/42 90/1/42 
f 70/1/7 105/1/7 133/1/7 71/1/7 
f 135/2/43 36/3/43 39/4/44 145/5/44 
f 42/1/45 119/6/45 147/7/46 41/8/46 
f 147/7/46 146/9/47 40/10/47 41/8/46 
f 146/9/47 145/5/44 39/4/44 40/10/47 
# 146 polygons - 26 triangles

