v 0.692909 0.160470 -0.704749
v 0.951728 0.160470 -0.256461
v 0.951728 0.160470 0.261177
v 0.692909 0.160470 0.709464
v 0.244621 0.160470 0.968283
v -0.273016 0.160470 0.968284
v -0.721304 0.160470 0.709465
v -0.980123 0.160470 0.261177
v -0.980124 0.160470 -0.256461
v -0.721305 0.160470 -0.704748
v -0.273017 0.160470 -0.963568
v 0.244620 0.160470 -0.963568
v -0.014198 2.708580 0.002358
v 1.000000 0.019470 -1.000000
v 1.000000 0.019470 1.000000
v -1.000000 0.019470 1.000000
v -1.000000 0.019470 -1.000000
v 1.000001 0.437865 -0.999999
v 0.999999 0.437865 1.000001
v -1.000000 0.437865 1.000000
v -1.000000 0.437865 -1.000000

vt 0.999999 0.155589 0.0
vt 1.000000 0.000000 0.0
vt 1.000000 0.155589 0.0
vt 1.000000 0.000000 0.0
vt 1.000000 0.000000 0.0
vt 1.000000 0.155589 0.0
vt 0.000000 0.000000 0.0
vt 0.000001 0.155589 0.0
vt 1.000000 0.155589 0.0
vt 0.000000 0.000000 0.0
vt 1.000000 0.155589 0.0
vt 1.000000 0.000000 0.0
vt 0.000000 0.000000 0.0
vt 0.000000 0.155589 0.0
vt 0.000000 0.000000 0.0
vt 0.000000 0.155589 0.0
vt 0.000001 0.155589 0.0
vt 0.000000 0.000000 0.0
vt 1.000000 0.000000 0.0
vt 0.999999 0.155589 0.0
vt 0.000000 0.000000 0.0
vt 0.999999 0.155589 0.0
vt 0.000000 0.155589 0.0
vt 0.000000 0.000000 0.0
vt 0.999999 0.155589 0.0
vt 1.000000 0.155589 0.0
vt 0.000001 0.155589 0.0
vt 0.999999 0.155589 0.0
vt 0.000001 0.155589 0.0
vt 0.000000 0.155589 0.0
vt 1.000000 0.000000 0.0
vt 0.000000 0.000000 0.0
vt 0.000000 0.000000 0.0
vt 1.000000 0.000000 0.0
vt 0.000000 0.000000 0.0
vt 1.000000 0.000000 0.0
vt 0.628231 0.052434 0.0
vt 0.852374 0.052434 0.0
vt 0.498821 1.000000 0.0
vt 0.498821 1.000000 0.0
vt 0.369412 0.052434 0.0
vt 0.628231 0.052434 0.0
vt 0.498821 1.000000 0.0
vt 0.145268 0.052434 0.0
vt 0.369412 0.052434 0.0
vt 0.498821 1.000000 0.0
vt 0.015859 0.052434 0.0
vt 0.145268 0.052434 0.0
vt 0.498821 1.000000 0.0
vt 0.015858 0.052434 0.0
vt 0.015859 0.052434 0.0
vt 0.498821 1.000000 0.0
vt 0.145268 0.052434 0.0
vt 0.015858 0.052434 0.0
vt 0.498821 1.000000 0.0
vt 0.369411 0.052434 0.0
vt 0.145268 0.052434 0.0
vt 0.498821 1.000000 0.0
vt 0.628230 0.052434 0.0
vt 0.369411 0.052434 0.0
vt 0.498821 1.000000 0.0
vt 0.852374 0.052434 0.0
vt 0.628230 0.052434 0.0
vt 0.498821 1.000000 0.0
vt 0.981784 0.052434 0.0
vt 0.852374 0.052434 0.0
vt 0.498821 1.000000 0.0
vt 0.981784 0.052434 0.0
vt 0.981784 0.052434 0.0
vt 0.498821 1.000000 0.0
vt 0.852374 0.052434 0.0
vt 0.981784 0.052434 0.0

vn 0.000000 0.000001 -1.000000
vn -1.000000 -0.000001 -0.000000
vn -0.000000 -0.000002 1.000000
vn -0.000001 0.000000 1.000000
vn 1.000000 -0.000001 0.000000
vn 1.000000 0.000002 0.000001
vn 0.000000 1.000000 -0.000000
vn -0.000000 -1.000000 0.000000
vn 0.899136 0.365307 -0.240913
vn 0.658223 0.365307 -0.658223
vn 0.899136 0.365307 0.240913
vn 0.658223 0.365307 0.658223
vn 0.240913 0.365307 0.899136
vn -0.240913 0.365307 0.899136
vn -0.658223 0.365307 0.658223
vn -0.899136 0.365307 0.240913
vn -0.899136 0.365307 -0.240913
vn -0.658223 0.365307 -0.658223
vn -0.240913 0.365307 -0.899136
vn 0.240913 0.365307 -0.899136

f 18/1/1 14/2/1 21/3/1
f 14/4/1 17/5/1 21/6/1
f 16/7/2 20/8/2 21/9/2
f 16/10/2 21/11/2 17/12/2
f 15/13/3 19/14/3 16/15/3
f 19/16/4 20/17/4 16/18/4
f 14/19/5 18/20/5 15/21/5
f 18/22/6 19/23/6 15/24/6
f 18/25/7 21/26/7 20/27/7
f 18/28/7 20/29/7 19/30/7
f 14/31/8 15/32/8 16/33/8
f 14/34/8 16/35/8 17/36/8

f 2/37/9 1/38/10 13/39/7
f 13/40/7 3/41/11 2/42/9
f 13/43/7 4/44/12 3/45/11
f 13/46/7 5/47/13 4/48/12
f 13/49/7 6/50/14 5/51/13
f 13/52/7 7/53/15 6/54/14
f 13/55/7 8/56/16 7/57/15
f 13/58/7 9/59/17 8/60/16
f 13/61/7 10/62/18 9/63/17
f 13/64/7 11/65/19 10/66/18
f 13/67/7 12/68/20 11/69/19
f 13/70/7 1/71/10 12/72/20
